<svg width="818" height="818" viewBox="0 0 818 818" fill="none" xmlns="http://www.w3.org/2000/svg">
<g filter="url(#filter0_d_27_1422)">
<path fill-rule="evenodd" clip-rule="evenodd" d="M387.14 1.03383C371.497 2.99206 360.114 6.90311 340.875 16.9273L325.018 25.1902L162.527 191.494C73.1556 282.96 0.0176628 359.105 4.47532e-05 360.704C-0.0193351 362.303 6.25799 370.432 13.95 378.769L27.9353 393.927L83.9819 336.114C114.808 304.316 187.994 228.801 246.618 168.302C305.242 107.805 356.118 56.4208 359.675 54.1157C373.111 45.4121 386.812 42.1513 407.011 42.8541C423.905 43.4412 426.682 44.0554 437.843 49.6681C448.088 54.8202 453.733 59.7122 472.129 79.3867C519.297 129.826 550.771 162.935 650.941 267.473C759.059 380.308 774.137 395.562 776.529 394.541C779.313 393.353 803.508 365.513 802.992 364.093C802.705 363.302 772.342 331.069 735.52 292.462C698.698 253.856 637.153 188.948 598.754 148.223C560.356 107.499 517.544 62.7652 503.617 48.8137C480.739 25.8965 476.68 22.6322 461.559 14.9872C436.076 2.10508 413.067 -2.20882 387.14 1.03383ZM599.931 9.61284C597.442 13.4733 592.484 23.8895 588.914 32.7594C583.243 46.8572 582.336 51.1892 581.703 67.1694C580.828 89.2628 583.726 101.35 592.831 113.576C600.317 123.629 605.745 127.217 607.986 123.591C608.816 122.247 609.521 108.141 609.551 92.2435C609.605 62.879 610.849 55.8192 615.187 60.2668C616.827 61.9487 617.535 71.2828 617.771 94.2884C617.949 111.728 618.562 126.473 619.131 127.058C621.217 129.195 634.885 117.332 638.43 110.308C641.214 104.795 642.234 98.7956 642.736 84.9977C643.347 68.1865 643.002 65.8724 637.838 52.1448C631.64 35.6606 612.036 4.09221 607.438 3.18355C605.565 2.81503 602.78 5.20139 599.931 9.61284ZM391.086 85.7166C376.625 88.878 370.588 94.0211 317.82 148.107C213.341 255.2 81.2599 394.892 74.1317 405.837C60.3719 426.964 61.0714 418.225 60.2874 578.888C59.5421 731.62 59.8311 738.309 67.916 755.503C73.138 766.613 92.051 785.513 105.231 792.793C124.391 803.375 114.689 803.039 399.014 802.987C542.426 802.962 667.909 802.248 677.865 801.403C691.762 800.221 698.185 798.753 705.511 795.076C720.088 787.764 731.947 775.801 738.45 761.851C743.554 750.9 744.186 747.591 745.414 725.418C747.232 692.6 747.167 471.165 745.333 446.78C743.684 424.856 739.968 414.928 727.579 399.347C719.223 388.837 559.697 220.829 486.261 145.197C447.508 105.286 434.083 92.5578 427.85 89.8192C418.643 85.7708 400.232 83.7169 391.086 85.7166ZM765.471 116.655C736.422 121.207 700.789 147.036 686.688 173.765C678.772 188.768 674.299 211.622 677.569 220.356C678.157 221.928 679.202 223.214 679.891 223.214C680.581 223.214 686.152 216.696 692.273 208.73C714.068 180.355 745.296 153.933 750.603 159.374C751.921 160.726 748.927 164.126 740.472 170.891C716.945 189.714 688.013 224.742 689.2 232.965C690.321 240.732 710.973 240.919 726.809 233.307C739.819 227.056 750.915 215.95 758.023 202.069C771.013 176.699 790.553 122.706 788.617 117.534C787.507 114.568 780.495 114.303 765.471 116.655ZM394.908 128.711C391.68 130.341 369.085 152.653 344.696 178.292C301.726 223.465 300.316 225.176 299.187 233.545C297.659 244.848 297.404 363.226 298.871 379.174C299.893 390.258 300.475 391.713 304.585 393.438C307.524 394.67 333.981 395.425 378.468 395.546L447.776 395.734L451.143 391.469C454.377 387.373 454.511 382.81 454.511 276.643V166.082L437.163 148.606C414.941 126.22 407.124 122.538 394.908 128.711ZM495.033 306.995C495.033 378.706 495.373 389.259 497.753 391.284C499.837 393.057 519.365 393.851 580.999 394.673C625.289 395.264 661.882 395.512 662.32 395.224C664.045 394.095 500.091 225.02 497.27 225.02C495.495 225.02 495.033 241.924 495.033 306.995ZM180.945 351.919C142.404 391.915 108.709 427.821 106.068 431.712L101.269 438.786V494.399C101.269 534.066 101.852 550.61 103.305 552.098C107.196 556.085 136.822 557.732 192.883 557.079C231.944 556.625 250.401 555.767 252.971 554.286C255.723 552.698 256.969 549.681 257.8 542.587C258.417 537.328 258.928 476.896 258.935 408.289C258.951 282.138 258.815 279.231 252.872 279.208C251.854 279.204 219.488 311.923 180.945 351.919ZM302.441 437.207C298.28 441.474 297.397 454.94 298.019 504.723C298.539 546.292 298.882 550.702 301.759 552.859C306.449 556.369 356.019 558.137 406.937 556.607C432.286 555.847 451.005 554.535 452.304 553.431C453.985 552.001 454.511 538.318 454.511 495.994C454.511 446.536 454.192 440.163 451.601 437.955C449.261 435.964 434.584 435.374 376.923 434.949C314.169 434.488 304.816 434.772 302.441 437.207ZM504.723 435.906C494.816 437.391 495.033 436.073 495.033 495.031C495.033 548.265 495.126 549.715 498.747 553.07C502.306 556.369 506.583 556.511 601.749 556.511C694.759 556.511 701.239 556.307 704.186 553.283C707.061 550.33 707.331 545.524 707.331 497.201C707.331 449.645 707.017 443.857 704.207 439.46L701.084 434.573L605.546 434.844C553 434.992 507.63 435.471 504.723 435.906ZM118.378 598.818C108.231 599.547 103.242 600.694 102.03 602.577C100.939 604.273 100.471 629.268 100.777 669.417C101.323 740.775 100.915 738.226 113.897 751.063C118.265 755.382 123.446 758.396 128.577 759.599C138.099 761.833 249.976 762.173 253.352 759.978C257.966 756.977 258.868 743.306 258.908 675.626L258.951 606.865L254.009 602.011L249.069 597.157L191.024 597.463C159.1 597.631 126.41 598.241 118.378 598.818ZM307.971 598.339L299.733 599.152L298.591 610.348C297.964 616.507 297.707 651.787 298.021 688.748C298.463 740.824 299.106 756.481 300.88 758.298C302.654 760.117 318.079 760.775 369.59 761.225C443.408 761.871 449.985 761.425 453.037 755.577C455.357 751.132 456.056 616.845 453.812 606.793C453.109 603.646 451.374 600.615 449.955 600.057C446.714 598.781 319.134 597.237 307.971 598.339ZM517.056 598.834L495.914 599.867V679.311V758.755L504.649 760.256C509.453 761.082 553.058 761.508 601.548 761.201C689.052 760.648 689.76 760.614 695.99 756.641C707.463 749.325 707.331 750.292 707.331 673.713C707.331 609.702 707.095 604.27 704.186 601.285C701.263 598.286 695.331 598.052 619.619 597.931C574.838 597.86 528.684 598.267 517.056 598.834Z" fill="url(#paint0_linear_27_1422)"/>
</g>
<defs>
<filter id="filter0_d_27_1422" x="0" y="0" width="818" height="818" filterUnits="userSpaceOnUse" color-interpolation-filters="sRGB">
<feFlood flood-opacity="0" result="BackgroundImageFix"/>
<feColorMatrix in="SourceAlpha" type="matrix" values="0 0 0 0 0 0 0 0 0 0 0 0 0 0 0 0 0 0 127 0" result="hardAlpha"/>
<feOffset dx="15" dy="15"/>
<feComposite in2="hardAlpha" operator="out"/>
<feColorMatrix type="matrix" values="0 0 0 0 0 0 0 0 0 0 0 0 0 0 0 0 0 0 0.5 0"/>
<feBlend mode="normal" in2="BackgroundImageFix" result="effect1_dropShadow_27_1422"/>
<feBlend mode="normal" in="SourceGraphic" in2="effect1_dropShadow_27_1422" result="shape"/>
</filter>
<linearGradient id="paint0_linear_27_1422" x1="401.5" y1="0" x2="401.5" y2="803" gradientUnits="userSpaceOnUse">
<stop offset="0.494792" stop-color="#80E1A5"/>
<stop offset="1" stop-color="#50C989"/>
</linearGradient>
</defs>
</svg>
